
<svg width="25" height="30" viewBox="0 0 25 30" fill="none" xmlns="http://www.w3.org/2000/svg">
<path d="M16.4555 4.73604C17.0167 4.08915 17.4447 3.33775 17.7148 2.525C17.9848 1.71226 18.0917 0.854162 18.0292 0C16.3061 0.139093 14.7065 0.949519 13.5752 2.25667C13.0335 2.88316 12.623 3.61198 12.3679 4.39998C12.1129 5.18799 12.0186 6.01915 12.0906 6.84425C12.9311 6.85125 13.762 6.66475 14.5189 6.29917C15.2758 5.9336 15.9384 5.39875 16.4555 4.73604ZM20.1968 15.7819C20.2067 14.6442 20.5064 13.5279 21.0675 12.5382C21.6286 11.5485 22.4326 10.7181 23.4036 10.1253C22.7908 9.24232 21.9807 8.51424 21.0375 7.99883C20.0943 7.48342 19.044 7.19486 17.9698 7.15603C15.6538 6.91848 13.5159 8.50706 12.2836 8.50706C11.0513 8.50706 9.31429 7.18572 7.38424 7.21542C6.12247 7.25698 4.89302 7.62485 3.81579 8.28316C2.73857 8.94146 1.85035 9.86772 1.23777 10.9716C-1.37522 15.5146 0.569677 22.2698 3.18267 25.9369C4.37039 27.7333 5.85504 29.7673 7.81479 29.6931C9.77453 29.6188 10.4129 28.4756 12.6844 28.4756C14.956 28.4756 15.6538 29.6931 17.5838 29.6485C19.5139 29.604 20.8797 27.8076 22.1268 26.0111C23.0103 24.7069 23.7004 23.2817 24.1757 21.7799C22.999 21.2781 21.9952 20.4426 21.2881 19.3767C20.581 18.3107 20.2016 17.061 20.1968 15.7819Z" fill="white"/>
</svg>
