
<svg width="27" height="27" viewBox="0 0 27 27" fill="none" xmlns="http://www.w3.org/2000/svg">
<g clip-path="url(#clip0_4_78)">
<path d="M26.3704 13.7526C26.3704 12.6464 26.2807 11.8392 26.0864 11.0021H13.455V15.9948H20.8693C20.7199 17.2356 19.9127 19.1042 18.1188 20.3598L18.0937 20.5269L22.0875 23.6209L22.3642 23.6485C24.9054 21.3016 26.3704 17.8484 26.3704 13.7526Z" fill="#4285F4"/>
<path d="M13.455 26.9073C17.0874 26.9073 20.1369 25.7113 22.3643 23.6485L18.1189 20.3598C16.9828 21.152 15.4581 21.7051 13.455 21.7051C9.89729 21.7051 6.87773 19.3583 5.80133 16.1145L5.64356 16.1279L1.49071 19.3418L1.4364 19.4928C3.64875 23.8876 8.1931 26.9073 13.455 26.9073Z" fill="#34A853"/>
<path d="M5.80129 16.1145C5.51728 15.2774 5.35291 14.3804 5.35291 13.4536C5.35291 12.5268 5.51728 11.6299 5.78635 10.7928L5.77883 10.6145L1.57394 7.34895L1.43636 7.41438C0.524545 9.23812 0.00134277 11.2861 0.00134277 13.4536C0.00134277 15.6211 0.524545 17.669 1.43636 19.4928L5.80129 16.1145Z" fill="#FBBC05"/>
<path d="M13.455 5.20203C15.9813 5.20203 17.6854 6.29327 18.657 7.20519L22.4539 3.49794C20.122 1.33042 17.0874 0 13.455 0C8.1931 0 3.64875 3.01957 1.4364 7.41439L5.78639 10.7928C6.87773 7.54897 9.89729 5.20203 13.455 5.20203Z" fill="#EB4335"/>
</g>
<defs>
<clipPath id="clip0_4_78">
<rect width="26.3844" height="27" fill="white"/>
</clipPath>
</defs>
</svg>
