
<svg width="9" height="12" viewBox="0 0 9 12" fill="none" xmlns="http://www.w3.org/2000/svg">
<path d="M4.5 6.1875C4.32875 6.1855 4.16099 6.23601 4.01931 6.33223C3.87763 6.42846 3.76883 6.56577 3.70756 6.7257C3.64628 6.88563 3.63547 7.06049 3.67658 7.22675C3.71769 7.39301 3.80875 7.54268 3.9375 7.65562V8.4375C3.9375 8.58668 3.99676 8.72976 4.10225 8.83525C4.20774 8.94074 4.35082 9 4.5 9C4.64918 9 4.79226 8.94074 4.89775 8.83525C5.00324 8.72976 5.0625 8.58668 5.0625 8.4375V7.65562C5.19125 7.54268 5.28231 7.39301 5.32342 7.22675C5.36453 7.06049 5.35372 6.88563 5.29244 6.7257C5.23117 6.56577 5.12237 6.42846 4.98069 6.33223C4.83901 6.23601 4.67125 6.1855 4.5 6.1875ZM7.3125 3.9375V2.8125C7.3125 2.06658 7.01618 1.35121 6.48874 0.823762C5.96129 0.296316 5.24592 0 4.5 0C3.75408 0 3.03871 0.296316 2.51126 0.823762C1.98382 1.35121 1.6875 2.06658 1.6875 2.8125V3.9375C1.23995 3.9375 0.810725 4.11529 0.494257 4.43176C0.17779 4.74822 0 5.17745 0 5.625V9.5625C0 10.0101 0.17779 10.4393 0.494257 10.7557C0.810725 11.0722 1.23995 11.25 1.6875 11.25H7.3125C7.76005 11.25 8.18928 11.0722 8.50574 10.7557C8.82221 10.4393 9 10.0101 9 9.5625V5.625C9 5.17745 8.82221 4.74822 8.50574 4.43176C8.18928 4.11529 7.76005 3.9375 7.3125 3.9375ZM2.8125 2.8125C2.8125 2.36495 2.99029 1.93572 3.30676 1.61926C3.62322 1.30279 4.05245 1.125 4.5 1.125C4.94755 1.125 5.37678 1.30279 5.69324 1.61926C6.00971 1.93572 6.1875 2.36495 6.1875 2.8125V3.9375H2.8125V2.8125ZM7.875 9.5625C7.875 9.71168 7.81574 9.85476 7.71025 9.96025C7.60476 10.0657 7.46168 10.125 7.3125 10.125H1.6875C1.53832 10.125 1.39524 10.0657 1.28975 9.96025C1.18426 9.85476 1.125 9.71168 1.125 9.5625V5.625C1.125 5.47582 1.18426 5.33274 1.28975 5.22725C1.39524 5.12176 1.53832 5.0625 1.6875 5.0625H7.3125C7.46168 5.0625 7.60476 5.12176 7.71025 5.22725C7.81574 5.33274 7.875 5.47582 7.875 5.625V9.5625Z" fill="white"/>
</svg>
