<svg width="540" height="261" viewBox="0 0 540 261" fill="none" xmlns="http://www.w3.org/2000/svg">
<path d="M0.685266 0.586995H58.4135L135.724 189.285H138.775L216.085 0.586995H273.814V261H228.547V82.0932H226.131L154.161 260.237H120.338L48.3683 81.7117H45.9524V261H0.685266V0.586995Z" fill="black"/>
<path d="M413.43 261H325.184V0.586995H415.21C441.065 0.586995 463.274 5.80034 481.839 16.227C500.488 26.569 514.814 41.4461 524.817 60.8584C534.82 80.2707 539.822 103.498 539.822 130.539C539.822 157.666 534.778 180.977 524.69 200.474C514.687 219.971 500.234 234.933 481.33 245.36C462.511 255.787 439.878 261 413.43 261ZM372.359 220.183H411.141C429.282 220.183 444.413 216.877 456.535 210.265C468.657 203.568 477.77 193.608 483.873 180.384C489.977 167.075 493.029 150.46 493.029 130.539C493.029 110.618 489.977 94.0881 483.873 80.9488C477.77 67.7247 468.742 57.849 456.789 51.3218C444.922 44.7097 430.172 41.4037 412.54 41.4037H372.359V220.183Z" fill="#FF0000"/>
</svg>
